<?xml version="1.0" standalone="no"?><!DOCTYPE svg PUBLIC "-//W3C//DTD SVG 1.1//EN" "http://www.w3.org/Graphics/SVG/1.1/DTD/svg11.dtd"><svg t="1616397078613" class="icon" viewBox="0 0 1024 1024" version="1.1" xmlns="http://www.w3.org/2000/svg" p-id="3270" xmlns:xlink="http://www.w3.org/1999/xlink" width="200" height="200"><defs><style type="text/css"></style></defs><path d="M886.784 787.712H444.672a26.0096 26.0096 0 0 0 0 52.0192h442.112a26.0096 26.0096 0 1 0 0-52.0192zM886.784 655.36h-337.92a26.0096 26.0096 0 1 0 0 51.968h337.92a26.0096 26.0096 0 1 0 0-51.968zM626.7392 548.7616a26.0608 26.0608 0 0 0 26.0096 26.0096h234.0352a26.0096 26.0096 0 1 0 0-52.0192h-234.0352a26.0608 26.0608 0 0 0-26.0096 26.0096zM726.6816 274.8928l-88.6784-88.9344a66.56 66.56 0 0 0-38.912-17.7152 50.3296 50.3296 0 0 0-41.4208 12.5952l-9.3184 9.2672c-179.8656 178.6368-343.04 341.1456-389.12 387.328a133.12 133.12 0 0 0-35.4816 62.8736l-31.0784 126.5664a58.88 58.88 0 0 0 15.36 55.04l0.3072 0.4096a58.0608 58.0608 0 0 0 40.4992 17.9712 46.9504 46.9504 0 0 0 15.9232-2.7648c0.768-0.256 77.5168-29.2864 128-47.7696A179.2 179.2 0 0 0 353.28 750.6944l373.248-372.736a72.8576 72.8576 0 0 0 0.1536-103.0656zM148.48 787.5584a11.6224 11.6224 0 0 1-4.8128-2.9184 8.6528 8.6528 0 0 1-2.9696-5.7344l32.1536-126.5664v-0.9216a8.3456 8.3456 0 0 1 0.4096-2.1504l66.56 34.56L269.1072 742.4c-45.3632 17.5616-109.8752 41.2672-120.6272 45.1584z m167.9872-74.8032l-3.1232 3.072-26.4704-53.9648-0.6656-1.3824-1.2288-1.8944a35.4816 35.4816 0 0 0-8.2944-10.24 72.6016 72.6016 0 0 0-10.24-8.0384l-63.3856-33.0752C261.12 548.352 435.968 374.5792 517.12 294.5536L627.0464 404.48z m374.0672-372.48l-0.8192 0.8192-25.9072 25.6-109.7216-109.568c8.2432-8.2432 15.36-15.36 21.6064-21.4016 8.3456-8.5504 13.5168-13.6704 16.7936-17.2032a17.7152 17.7152 0 0 1 8.8576 3.072l88.4736 88.4736a21.4016 21.4016 0 0 1 0.8192 30.208z" p-id="3271"></path></svg>