<?xml version="1.0" standalone="no"?><!DOCTYPE svg PUBLIC "-//W3C//DTD SVG 1.1//EN" "http://www.w3.org/Graphics/SVG/1.1/DTD/svg11.dtd"><svg t="1616134146824" class="icon" viewBox="0 0 1024 1024" version="1.1" xmlns="http://www.w3.org/2000/svg" p-id="2148" xmlns:xlink="http://www.w3.org/1999/xlink" width="200" height="200"><defs><style type="text/css"></style></defs><path d="M708.14 344.43L452.97 597.69l-135.2-152.34-41.89 38.08 173.28 196.13L748.13 384.4l-39.99-39.97z m0 0" p-id="2149"></path><path d="M794.17 147.91c45.16 0.2 81.71 36.76 81.92 81.92v564.34c-0.2 45.16-36.76 81.71-81.92 81.92H229.83c-45.16-0.2-81.71-36.76-81.92-81.92V229.83c0.2-45.16 36.76-81.71 81.92-81.92h564.34m0-45.51H229.83c-70.09 0-127.43 57.34-127.43 127.43v564.34c0 70.08 57.34 127.43 127.43 127.43h564.34c70.08 0 127.43-57.34 127.43-127.43V229.83c0-70.09-57.34-127.43-127.43-127.43z m0 0" p-id="2150"></path><path d="M794.17 102.4H229.83c-70.09 0-127.43 57.34-127.43 127.43v564.34h45.51V229.83c0.2-45.16 36.76-81.71 81.92-81.92h564.34V102.4m0 0" p-id="2151"></path></svg>