<?xml version="1.0" standalone="no"?><!DOCTYPE svg PUBLIC "-//W3C//DTD SVG 1.1//EN" "http://www.w3.org/Graphics/SVG/1.1/DTD/svg11.dtd"><svg t="1616407151368" class="icon" viewBox="0 0 1024 1024" version="1.1" xmlns="http://www.w3.org/2000/svg" p-id="2814" xmlns:xlink="http://www.w3.org/1999/xlink" width="200" height="200"><defs><style type="text/css"></style></defs><path d="M799.2 874.4c0 34.4-28 62.4-62.368 62.4H287.2a62.496 62.496 0 0 1-62.4-62.4V212h574.4v662.4zM349.6 100c0-7.2 5.6-12.8 12.8-12.8h300c7.2 0 12.768 5.6 12.768 12.8v37.6H349.6V100z m636.8 37.6H749.6V100c0-48-39.2-87.2-87.2-87.2h-300a87.392 87.392 0 0 0-87.2 87.2v37.6H37.6C16.8 137.6 0 154.4 0 175.2s16.8 37.6 37.6 37.6h112v661.6A137.6 137.6 0 0 0 287.2 1012h449.6a137.6 137.6 0 0 0 137.6-137.6V212h112c20.8 0 37.6-16.8 37.6-37.6s-16.8-36.8-37.6-36.8zM512 824c20.8 0 37.6-16.8 37.6-37.6v-400c0-20.8-16.768-37.6-37.6-37.6-20.8 0-37.6 16.8-37.6 37.6v400c0 20.8 16.8 37.6 37.6 37.6m-175.2 0c20.8 0 37.6-16.8 37.6-37.6v-400c0-20.8-16.8-37.6-37.6-37.6s-37.6 16.8-37.6 37.6v400c0.8 20.8 17.6 37.6 37.6 37.6m350.4 0c20.8 0 37.632-16.8 37.632-37.6v-400c0-20.8-16.8-37.6-37.632-37.6-20.768 0-37.6 16.8-37.6 37.6v400c0 20.8 16.8 37.6 37.6 37.6" p-id="2815"></path></svg>