<?xml version="1.0" standalone="no"?><!DOCTYPE svg PUBLIC "-//W3C//DTD SVG 1.1//EN" "http://www.w3.org/Graphics/SVG/1.1/DTD/svg11.dtd"><svg t="1616134250659" class="icon" viewBox="0 0 1024 1024" version="1.1" xmlns="http://www.w3.org/2000/svg" p-id="5955" xmlns:xlink="http://www.w3.org/1999/xlink" width="200" height="200"><defs><style type="text/css"></style></defs><path d="M465.499307 1021.354667c-21.504 0-44.117333-2.048-68.693334-5.12l-6.144-1.024c-174.336-26.624-293.290667-195.925333-298.410666-203.093334C-76.026027 555.776 8.11264 296.277333 167.08864 152.661333 325.04064 9.045333 588.635307-52.48 819.37664 133.205333c148.736 119.978667 193.877333 286.122667 195.925333 293.290667v2.048c21.504 116.906667 4.096 203.093333-52.309333 258.474667-86.186667 83.114667-228.693333 56.405333-248.234667 52.309333-26.709333-3.072-46.165333 5.12-60.501333 22.528-15.36 19.456-18.432 45.141333-13.312 60.501333 14.336 43.093333 16.384 75.861333 6.144 100.522667-29.781333 64.682667-90.282667 98.474667-181.589333 98.474667z m-65.621334-67.669334l6.144 1.024c99.498667 15.36 160-4.096 184.576-59.477333 0-1.024 5.12-14.336-8.192-55.381333-13.312-36.949333-3.072-85.162667 23.552-117.930667 27.733333-34.901333 68.693333-50.261333 116.906667-45.141333l3.072 1.024c1.024 0 128.170667 27.648 193.877333-35.925334 40.021333-38.997333 52.309333-106.666667 34.901334-201.045333-4.096-13.312-48.213333-157.952-175.36-259.498667C578.309973 17.322667 347.56864 71.68 208.04864 197.802667 79.877973 314.709333-14.500693 537.258667 143.451307 778.325333c1.024 0 108.714667 153.856 256.426666 175.36z m0 0" p-id="5956"></path><path d="M158.89664 538.282667c0 33.962667 27.562667 61.525333 61.525333 61.525333s61.525333-27.562667 61.525334-61.525333-27.562667-61.525333-61.525334-61.525334c-34.048 0-61.525333 27.562667-61.525333 61.525334z m71.765333-184.576c0 33.962667 27.562667 61.525333 61.525334 61.525333s61.525333-27.562667 61.525333-61.525333-27.562667-61.525333-61.525333-61.525334-61.525333 27.562667-61.525334 61.525334z m184.576-102.570667c0 33.962667 27.562667 61.525333 61.525334 61.525333s61.525333-27.562667 61.525333-61.525333-27.562667-61.525333-61.525333-61.525333-61.525333 27.562667-61.525334 61.525333z m205.141334 51.285333c0 33.962667 27.562667 61.525333 61.525333 61.525334s61.525333-27.562667 61.525333-61.525334-27.562667-61.525333-61.525333-61.525333-61.525333 27.562667-61.525333 61.525333z m102.570666 164.096c0 33.962667 27.562667 61.525333 61.525334 61.525334s61.525333-27.562667 61.525333-61.525334-27.562667-61.525333-61.525333-61.525333-61.525333 27.562667-61.525334 61.525333z m0 0" p-id="5957"></path></svg>