<?xml version="1.0" standalone="no"?><!DOCTYPE svg PUBLIC "-//W3C//DTD SVG 1.1//EN" "http://www.w3.org/Graphics/SVG/1.1/DTD/svg11.dtd"><svg t="1616746013904" class="icon" viewBox="0 0 1024 1024" version="1.1" xmlns="http://www.w3.org/2000/svg" p-id="2051" xmlns:xlink="http://www.w3.org/1999/xlink" width="200" height="200"><defs><style type="text/css"></style></defs><path d="M202.496 821.504H69.802667A44.202667 44.202667 0 0 1 25.6 777.386667V69.973333C25.6 45.312 45.397333 25.6 69.802667 25.6H777.386667a44.202667 44.202667 0 0 1 44.202666 44.202667v132.693333h132.693334c24.405333 0 44.202667 19.797333 44.202666 44.202667v707.413333a44.202667 44.202667 0 0 1-44.202666 44.288H246.613333a44.202667 44.202667 0 0 1-44.202666-44.202667V821.504zM733.013333 202.496V114.005333H114.005333v619.093334h88.490667v-486.4a44.202667 44.202667 0 0 1 44.202667-44.202667h486.4zM290.901333 290.901333v619.093334h619.093334V290.901333H290.901333z" p-id="2052"></path></svg>