<?xml version="1.0" standalone="no"?><!DOCTYPE svg PUBLIC "-//W3C//DTD SVG 1.1//EN" "http://www.w3.org/Graphics/SVG/1.1/DTD/svg11.dtd"><svg t="1616397448118" class="icon" viewBox="0 0 1024 1024" version="1.1" xmlns="http://www.w3.org/2000/svg" p-id="6518" xmlns:xlink="http://www.w3.org/1999/xlink" width="200" height="200"><defs><style type="text/css"></style></defs><path d="M939.4 139.6H550c-11.6 0-21.2 9.6-21.2 21.2V474c0 11.9 9.6 21.2 21.2 21.2h389.5c11.4 0 20.9-9.3 20.9-21.2V160.8c0-11.6-9.6-21.2-21-21.2z m-21.7 313.2h-346V182.2h346.1v270.6h-0.1zM474.3 139.6h-389c-12.1 0-21.7 9.6-21.7 21.2v702.7c0 11.6 9.6 20.9 21.7 20.9h389c11.6 0 21.2-9.3 21.2-20.9V160.8c0-11.6-9.6-21.2-21.2-21.2z m-21.5 702.2H106.5V182.2h346.3v659.6z m486.6-308.5H550c-11.6 0-21.2 9.8-21.2 21.4v308.7c0 11.6 9.6 20.9 21.2 20.9h389.5c11.4 0 20.9-9.3 20.9-20.9V554.8c0-11.6-9.6-21.5-21-21.5z m-21.7 308.5h-346V575.9h346.1v265.9h-0.1zM209.9 448.1c8.6 8.3 22.2 8.3 30 0l49.2-48.7 42.9 42.9c8.6 8.1 21.7 8.1 30 0s8.3-22.2 0-30l-43.1-43.1 49.2-48.9h-0.3c2.5-2 4.5-5.3 5.3-8.6 3.8-11.1-2.3-22.7-13.4-26.7L171 224.5c-4-1.3-8.8-1.3-13.1 0-11.1 4-17.2 16.1-13.6 26.7l60 187.2c1.1 3.6 3.1 6.9 5.6 9.7z m103.2-133.2l-38.6 38.6v0.5h-0.5l-0.5 1-38.8 38.4-37.3-115.8 115.7 37.3z" p-id="6519"></path></svg>