<?xml version="1.0" standalone="no"?><!DOCTYPE svg PUBLIC "-//W3C//DTD SVG 1.1//EN" "http://www.w3.org/Graphics/SVG/1.1/DTD/svg11.dtd"><svg t="1616397202972" class="icon" viewBox="0 0 1108 1024" version="1.1" xmlns="http://www.w3.org/2000/svg" p-id="4265" xmlns:xlink="http://www.w3.org/1999/xlink" width="216.40625" height="200"><defs><style type="text/css"></style></defs><path d="M950.158133 0.000356H157.9625A157.677947 157.677947 0 0 0 0 157.358181v709.283994a157.677947 157.677947 0 0 0 157.9625 157.357825h792.195633a157.677947 157.677947 0 0 0 157.962501-157.357825V157.358181A157.677947 157.677947 0 0 0 950.158133 0.000356z m78.963466 867.886738a78.821189 78.821189 0 0 1-78.963466 78.678913H157.9625a76.509196 76.509196 0 0 1-67.190084-39.908562l265.238993-264.207488 128.511261 128.048863a48.97869 48.97869 0 0 0 67.190084-7.113826l279.359937-278.292862 198.048908 197.266387z m0-293.587587l-172.119014-171.4432a37.809984 37.809984 0 0 0-54.207352 0c-1.173781 1.173781-1.173781 4.695125-2.347562 5.868906l-285.299981 284.197338-133.206387-132.708419a37.845553 37.845553 0 0 0-54.242921 0c-1.173781 1.173781-1.173781 4.695125-2.347562 5.868906l-246.387354 245.426988V157.358181a78.821189 78.821189 0 0 1 78.963465-78.678913h792.160064a78.821189 78.821189 0 0 1 78.963466 78.678913v416.870187zM475.061282 157.429319a157.357825 157.357825 0 1 0 157.9625 157.357825 157.677947 157.677947 0 0 0-157.9625-157.428963z m0 237.210519a78.678913 78.678913 0 1 1 78.963466-78.678913 78.821189 78.821189 0 0 1-78.963466 78.607775z" p-id="4266"></path></svg>