<?xml version="1.0" standalone="no"?><!DOCTYPE svg PUBLIC "-//W3C//DTD SVG 1.1//EN" "http://www.w3.org/Graphics/SVG/1.1/DTD/svg11.dtd"><svg t="1616837392769" class="icon" viewBox="0 0 1024 1024" version="1.1" xmlns="http://www.w3.org/2000/svg" p-id="2194" xmlns:xlink="http://www.w3.org/1999/xlink" width="200" height="200"><defs><style type="text/css"></style></defs><path d="M320 288.13h0.07l607.13-1.34c17.67-0.04 31.97-14.4 31.93-32.07-0.04-17.65-14.36-31.93-32-31.93h-0.07l-607.13 1.34c-17.67 0.04-31.97 14.4-31.93 32.07 0.04 17.65 14.36 31.93 32 31.93zM112.02 304c26.51 0 48-21.49 48-48s-21.49-48-48-48-48 20.15-48 46.66c0 26.51 21.49 49.34 48 49.34zM320 544l607.13-0.06c17.67 0 32-14.33 32-32s-14.33-32-32-32L320 480c-17.67 0-32 14.33-32 32s14.33 32 32 32zM112.01 560c26.51 0 47.98-20.96 47.98-47.47 0-26.51-21.47-48.53-47.98-48.53-26.51 0-48 21.49-48 48s21.49 48 48 48zM929.53 736H320c-17.67 0-32 14.33-32 32s14.33 32 32 32h609.53c17.67 0 32-14.33 32-32s-14.32-32-32-32z" p-id="2195"></path><path d="M112.02 769.53m-48 0a48 48 0 1 0 96 0 48 48 0 1 0-96 0Z" p-id="2196"></path></svg>