<?xml version="1.0" standalone="no"?><!DOCTYPE svg PUBLIC "-//W3C//DTD SVG 1.1//EN" "http://www.w3.org/Graphics/SVG/1.1/DTD/svg11.dtd"><svg t="1616134111818" class="icon" viewBox="0 0 1024 1024" version="1.1" xmlns="http://www.w3.org/2000/svg" p-id="1697" xmlns:xlink="http://www.w3.org/1999/xlink" width="200" height="200"><defs><style type="text/css"></style></defs><path d="M957.91 512.93c0 247.03-200.26 447.29-447.29 447.29S63.33 759.97 63.33 512.93 263.59 65.65 510.62 65.65 957.91 265.9 957.91 512.93zM510.62 155.1c-197.62 0-357.83 160.21-357.83 357.83S313 870.77 510.62 870.77s357.83-160.21 357.83-357.83S708.25 155.1 510.62 155.1z" p-id="1698"></path><path d="M510.62 512.93m-178.92 0a178.92 178.92 0 1 0 357.84 0 178.92 178.92 0 1 0-357.84 0Z" p-id="1699"></path></svg>