<?xml version="1.0" standalone="no"?><!DOCTYPE svg PUBLIC "-//W3C//DTD SVG 1.1//EN" "http://www.w3.org/Graphics/SVG/1.1/DTD/svg11.dtd"><svg t="1616397264104" class="icon" viewBox="0 0 1024 1024" version="1.1" xmlns="http://www.w3.org/2000/svg" p-id="5680" xmlns:xlink="http://www.w3.org/1999/xlink" width="200" height="200"><defs><style type="text/css"></style></defs><path d="M874.1 97.9H149.91a52.06 52.06 0 0 0-52 52v724.2a52.06 52.06 0 0 0 52 52H874.1a52.06 52.06 0 0 0 52-52V149.9a52.06 52.06 0 0 0-52-52z m-20 756.19H169.91V169.9H854.1z" p-id="5681"></path><path d="M256.23 291.65h60v188a36 36 0 0 0 72 0v-188h60a36 36 0 0 0 0-72h-192a36 36 0 1 0 0 72zM576.23 291.65h192a36 36 0 0 0 0-72h-192a36 36 0 1 0 0 72zM576.23 419.65h192a36 36 0 0 0 0-72h-192a36 36 0 0 0 0 72zM576.23 547.65h192a36 36 0 0 0 0-72h-192a36 36 0 0 0 0 72zM256.23 676.13h512a36 36 0 0 0 0-72h-512a36 36 0 1 0 0 72zM256.23 804.13h512a36 36 0 0 0 0-72h-512a36 36 0 1 0 0 72z" p-id="5682"></path></svg>