<?xml version="1.0" standalone="no"?><!DOCTYPE svg PUBLIC "-//W3C//DTD SVG 1.1//EN" "http://www.w3.org/Graphics/SVG/1.1/DTD/svg11.dtd"><svg t="1616134429151" class="icon" viewBox="0 0 1024 1024" version="1.1" xmlns="http://www.w3.org/2000/svg" p-id="7902" xmlns:xlink="http://www.w3.org/1999/xlink" width="200" height="200"><defs><style type="text/css"></style></defs><path d="M1024 191.8v64H388c-2.2 0-4 1.8-4 4V288c0 17.7-14.3 32-32 32H160c-17.7 0-32-14.3-32-32v-28.3c0-2.2-1.8-4-4-4H0v-64h124c2.2 0 4-1.8 4-4V160c0-17.7 14.3-32 32-32h192c17.7 0 32 14.3 32 32v27.8c0 2.2 1.8 4 4 4h636zM1024 480v64H772c-2.2 0-4 1.8-4 4v28c0 17.7-14.3 32-32 32H544c-17.7 0-32-14.3-32-32v-28c0-2.2-1.8-4-4-4H0v-64h508c2.2 0 4-1.8 4-4v-28c0-17.7 14.3-32 32-32h192c17.7 0 32 14.3 32 32v28c0 2.2 1.8 4 4 4h252zM1024 768.3v64H484c-2.2 0-4 1.8-4 4V864c0 17.7-14.3 32-32 32H256c-17.7 0-32-14.3-32-32v-27.8c0-2.2-1.8-4-4-4H0v-64h220c2.2 0 4-1.8 4-4V736c0-17.7 14.3-32 32-32h192c17.7 0 32 14.3 32 32v28.3c0 2.2 1.8 4 4 4h540z" p-id="7903"></path></svg>