<?xml version="1.0" standalone="no"?><!DOCTYPE svg PUBLIC "-//W3C//DTD SVG 1.1//EN" "http://www.w3.org/Graphics/SVG/1.1/DTD/svg11.dtd"><svg t="1616134172392" class="icon" viewBox="0 0 1024 1024" version="1.1" xmlns="http://www.w3.org/2000/svg" p-id="2961" xmlns:xlink="http://www.w3.org/1999/xlink" width="200" height="200"><defs><style type="text/css"></style></defs><path d="M512 64C264.58 64 64 264.58 64 512s200.58 448 448 448 448-200.58 448-448S759.42 64 512 64z m0 832c-211.74 0-384-172.26-384-384s172.26-384 384-384 384 172.26 384 384-172.26 384-384 384z" p-id="2962"></path><path d="M544 498.47V256a32 32 0 0 0-64 0v256a31.58 31.58 0 0 0 10.93 23.68c0.31 0.34 0.41 0.79 0.75 1.12l135.69 135.69a32 32 0 0 0 45.32-45.32z" p-id="2963"></path></svg>