<?xml version="1.0" standalone="no"?><!DOCTYPE svg PUBLIC "-//W3C//DTD SVG 1.1//EN" "http://www.w3.org/Graphics/SVG/1.1/DTD/svg11.dtd"><svg t="1641537387422" class="icon" viewBox="0 0 1024 1024" version="1.1" xmlns="http://www.w3.org/2000/svg" p-id="3808" xmlns:xlink="http://www.w3.org/1999/xlink" width="200" height="200"><defs><style type="text/css"></style></defs><path d="M158.144 0A158.304 158.304 0 0 0 0 158.144a158.304 158.304 0 0 0 158.144 158.112 158.304 158.304 0 0 0 158.112-158.112A158.304 158.304 0 0 0 158.144 0z m0 283.104a125.12 125.12 0 0 1-124.96-124.96 125.12 125.12 0 0 1 124.96-124.96 125.12 125.12 0 0 1 124.96 124.96 125.12 125.12 0 0 1-124.96 124.96zM158.144 353.856A158.304 158.304 0 0 0 0 512a158.304 158.304 0 0 0 158.144 158.144A158.304 158.304 0 0 0 316.256 512a158.304 158.304 0 0 0-158.112-158.144z m0 283.104A125.12 125.12 0 0 1 33.184 512a125.12 125.12 0 0 1 124.96-124.96A125.12 125.12 0 0 1 283.104 512a125.12 125.12 0 0 1-124.96 124.96zM158.144 707.744A158.304 158.304 0 0 0 0 865.856 158.304 158.304 0 0 0 158.144 1024a158.304 158.304 0 0 0 158.112-158.144 158.304 158.304 0 0 0-158.112-158.112z m0 283.072a125.12 125.12 0 0 1-124.96-124.96 125.12 125.12 0 0 1 124.96-124.96 125.12 125.12 0 0 1 124.96 124.96 125.12 125.12 0 0 1-124.96 124.96z" p-id="3809"></path><path d="M199.488 111.04L140.448 170.016l-23.68-23.648a16.576 16.576 0 0 0-23.456 23.456l35.392 35.392a16.544 16.544 0 0 0 23.456 0l70.784-70.784a16.576 16.576 0 1 0-23.456-23.456zM199.488 464.896l-59.04 59.04-23.68-23.68a16.576 16.576 0 0 0-23.456 23.488l35.392 35.36a16.544 16.544 0 0 0 23.456 0l70.784-70.752a16.576 16.576 0 1 0-23.456-23.456zM388.16 121.632h318.464a16.576 16.576 0 1 0 0-33.152H388.16a16.576 16.576 0 1 0 0 33.152zM388.16 227.808h619.264a16.576 16.576 0 1 0 0-33.184H388.16a16.576 16.576 0 1 0 0 33.184zM388.16 475.52h318.464a16.576 16.576 0 1 0 0-33.184H388.16a16.576 16.576 0 1 0 0 33.184zM1007.424 548.48H388.16a16.576 16.576 0 1 0 0 33.184h619.264a16.576 16.576 0 1 0 0-33.184zM388.16 829.376h318.464a16.576 16.576 0 1 0 0-33.184H388.16a16.576 16.576 0 1 0 0 33.184zM1007.424 902.368H388.16a16.576 16.576 0 1 0 0 33.152h619.264a16.576 16.576 0 1 0 0-33.152z" p-id="3810"></path></svg>