<?xml version="1.0" standalone="no"?><!DOCTYPE svg PUBLIC "-//W3C//DTD SVG 1.1//EN" "http://www.w3.org/Graphics/SVG/1.1/DTD/svg11.dtd"><svg t="1644219806935" class="icon" viewBox="0 0 1024 1024" version="1.1" xmlns="http://www.w3.org/2000/svg" p-id="3309" xmlns:xlink="http://www.w3.org/1999/xlink" width="200" height="200"><defs><style type="text/css"></style></defs><path d="M128.194764 929.441442C85.742288 929.441442 51.2 894.408934 51.2 851.471951L51.2 151.063063 25.6 177.009009 896.131998 177.009009C938.35962 177.009009 972.8 211.994665 972.8 254.743324L972.8 838.63063C972.8 852.960181 984.26151 864.576576 998.4 864.576576 1012.53849 864.576576 1024 852.960181 1024 838.63063L1024 254.743324C1024 183.362078 966.662825 125.117117 896.131998 125.117117L25.6 125.117117C11.46151 125.117117 0 136.733513 0 151.063063L0 851.471951C0 923.060267 57.457637 981.333333 128.194764 981.333333L883.2 981.333333C897.33849 981.333333 908.8 969.716939 908.8 955.387388 908.8 941.057837 897.33849 929.441442 883.2 929.441442L128.194764 929.441442Z" p-id="3310"></path><path d="M281.6 254.846846C281.6 269.176397 293.06151 280.792794 307.2 280.792794 321.33849 280.792794 332.8 269.176397 332.8 254.846846L332.8 60.252252C332.8 45.922702 321.33849 34.306306 307.2 34.306306 293.06151 34.306306 281.6 45.922702 281.6 60.252252L281.6 254.846846Z" p-id="3311"></path><path d="M716.8 241.873873C716.8 256.203424 728.26151 267.819821 742.4 267.819821 756.53849 267.819821 768 256.203424 768 241.873873L768 47.279279C768 32.949729 756.53849 21.333333 742.4 21.333333 728.26151 21.333333 716.8 32.949729 716.8 47.279279L716.8 241.873873Z" p-id="3312"></path><path d="M332.8 410.522522C346.93849 410.522522 358.4 398.906127 358.4 384.576576 358.4 370.247027 346.93849 358.63063 332.8 358.63063L192 358.63063C177.86151 358.63063 166.4 370.247027 166.4 384.576576 166.4 398.906127 177.86151 410.522522 192 410.522522L332.8 410.522522Z" p-id="3313"></path><path d="M614.4 410.522522C628.53849 410.522522 640 398.906127 640 384.576576 640 370.247027 628.53849 358.63063 614.4 358.63063L473.6 358.63063C459.46151 358.63063 448 370.247027 448 384.576576 448 398.906127 459.46151 410.522522 473.6 410.522522L614.4 410.522522Z" p-id="3314"></path><path d="M870.4 410.522522C884.53849 410.522522 896 398.906127 896 384.576576 896 370.247027 884.53849 358.63063 870.4 358.63063L729.6 358.63063C715.46151 358.63063 704 370.247027 704 384.576576 704 398.906127 715.46151 410.522522 729.6 410.522522L870.4 410.522522Z" p-id="3315"></path><path d="M332.8 566.198197C346.93849 566.198197 358.4 554.581803 358.4 540.252252 358.4 525.922703 346.93849 514.306306 332.8 514.306306L192 514.306306C177.86151 514.306306 166.4 525.922703 166.4 540.252252 166.4 554.581803 177.86151 566.198197 192 566.198197L332.8 566.198197Z" p-id="3316"></path><path d="M614.4 566.198197C628.53849 566.198197 640 554.581803 640 540.252252 640 525.922703 628.53849 514.306306 614.4 514.306306L473.6 514.306306C459.46151 514.306306 448 525.922703 448 540.252252 448 554.581803 459.46151 566.198197 473.6 566.198197L614.4 566.198197Z" p-id="3317"></path><path d="M870.4 566.198197C884.53849 566.198197 896 554.581803 896 540.252252 896 525.922703 884.53849 514.306306 870.4 514.306306L729.6 514.306306C715.46151 514.306306 704 525.922703 704 540.252252 704 554.581803 715.46151 566.198197 729.6 566.198197L870.4 566.198197Z" p-id="3318"></path><path d="M332.8 721.873873C346.93849 721.873873 358.4 710.257478 358.4 695.927927 358.4 681.598379 346.93849 669.981982 332.8 669.981982L192 669.981982C177.86151 669.981982 166.4 681.598379 166.4 695.927927 166.4 710.257478 177.86151 721.873873 192 721.873873L332.8 721.873873Z" p-id="3319"></path><path d="M614.4 721.873873C628.53849 721.873873 640 710.257478 640 695.927927 640 681.598379 628.53849 669.981982 614.4 669.981982L473.6 669.981982C459.46151 669.981982 448 681.598379 448 695.927927 448 710.257478 459.46151 721.873873 473.6 721.873873L614.4 721.873873Z" p-id="3320"></path><path d="M870.4 721.873873C884.53849 721.873873 896 710.257478 896 695.927927 896 681.598379 884.53849 669.981982 870.4 669.981982L729.6 669.981982C715.46151 669.981982 704 681.598379 704 695.927927 704 710.257478 715.46151 721.873873 729.6 721.873873L870.4 721.873873Z" p-id="3321"></path></svg>