<?xml version="1.0" standalone="no"?><!DOCTYPE svg PUBLIC "-//W3C//DTD SVG 1.1//EN" "http://www.w3.org/Graphics/SVG/1.1/DTD/svg11.dtd"><svg t="1642126650252" class="icon" viewBox="0 0 1024 1024" version="1.1" xmlns="http://www.w3.org/2000/svg" p-id="1453" xmlns:xlink="http://www.w3.org/1999/xlink" width="200" height="200"><defs><style type="text/css"></style></defs><path d="M106.666667 432.128a42.666667 42.666667 0 0 1-42.666667-42.666667V106.666667a42.666667 42.666667 0 0 1 42.666667-42.666667h312.362666a42.666667 42.666667 0 1 1 0 85.333333H149.333333v240.128a42.666667 42.666667 0 0 1-42.666666 42.666667" p-id="1454"></path><path d="M920.746667 960.298667H608.426667a42.666667 42.666667 0 1 1 0-85.333334h269.653333V634.837333a42.666667 42.666667 0 1 1 85.333333 0V917.632a42.666667 42.666667 0 0 1-42.666666 42.666667" p-id="1455"></path><path d="M346.026667 296.277333c-26.794667 0-48.554667 21.76-48.554667 48.512v345.642667c0 26.752 21.76 48.512 48.512 48.512h345.685333c26.752 0 48.469333-21.76 48.469334-48.512v-345.6c0-26.794667-21.717333-48.554667-48.469334-48.554667H346.026667zM691.626667 824.32H346.026667a133.973333 133.973333 0 0 1-133.845334-133.845333v-345.6A133.973333 133.973333 0 0 1 346.026667 210.901333h345.685333a133.973333 133.973333 0 0 1 133.802667 133.845334v345.642666a133.973333 133.973333 0 0 1-133.802667 133.845334z" p-id="1456"></path><path d="M446.08 659.541333a42.837333 42.837333 0 0 1-37.845333-22.912l-61.226667-117.205333a42.666667 42.666667 0 1 1 75.648-39.509333l36.565333 69.930666 160.426667-135.893333a42.666667 42.666667 0 1 1 55.125333 65.109333l-201.130666 170.368a42.752 42.752 0 0 1-27.562667 10.112" p-id="1457"></path></svg>