<?xml version="1.0" standalone="no"?><!DOCTYPE svg PUBLIC "-//W3C//DTD SVG 1.1//EN" "http://www.w3.org/Graphics/SVG/1.1/DTD/svg11.dtd"><svg t="1631934635946" class="icon" viewBox="0 0 1024 1024" version="1.1" xmlns="http://www.w3.org/2000/svg" p-id="1078" xmlns:xlink="http://www.w3.org/1999/xlink" width="200" height="200"><defs><style type="text/css"></style></defs><path d="M853.333333 955.733333H170.666667c-66.030933 0-102.4-36.369067-102.4-102.4V170.666667c0-66.030933 36.369067-102.4 102.4-102.4h682.666666c66.030933 0 102.4 36.369067 102.4 102.4v682.666666c0 66.030933-36.369067 102.4-102.4 102.4z m-324.266666-34.133333h324.266666c47.223467 0 68.266667-21.0432 68.266667-68.266667V170.666667c0-47.223467-21.0432-68.266667-68.266667-68.266667H529.066667v819.2zM170.666667 102.4c-47.223467 0-68.266667 21.0432-68.266667 68.266667v682.666666c0 47.223467 21.0432 68.266667 68.266667 68.266667h324.266666V102.4H170.666667z" p-id="1079"></path></svg>