<?xml version="1.0" standalone="no"?><!DOCTYPE svg PUBLIC "-//W3C//DTD SVG 1.1//EN" "http://www.w3.org/Graphics/SVG/1.1/DTD/svg11.dtd"><svg t="1644405799351" class="icon" viewBox="0 0 1024 1024" version="1.1" xmlns="http://www.w3.org/2000/svg" p-id="10184" xmlns:xlink="http://www.w3.org/1999/xlink" width="200" height="200"><defs><style type="text/css"></style></defs><path d="M629.39164 415.032528l-163.616428-163.616428c-7.992021-7.992021-20.947078-7.992021-28.939099 0-7.992021 8.002254-7.992021 20.957311 0 28.949332l128.680754 128.680754-175.548178 0L389.968689 184.082552c0-11.2973-9.168824-20.466124-20.466124-20.466124L21.813818 163.616428c-11.307533 0-20.466124 9.168824-20.466124 20.466124l0 818.08214c0 11.307533 9.15859 20.466124 20.466124 20.466124l593.108273 0c11.307533 0 20.466124-9.15859 20.466124-20.466124L635.388215 429.512311C635.388215 424.078555 633.229039 418.880159 629.39164 415.032528zM594.455967 981.698568l-552.176025 0L42.279942 204.548676l306.756499 0 0 224.963635c0 11.2973 9.15859 20.466124 20.466124 20.466124l224.953402 0L594.455967 981.698568z" p-id="10185"></path><path d="M1023.978511 265.895883l0 572.652382c0 11.307533-9.15859 20.466124-20.466124 20.466124l-307.86167 0c-11.2973 0-20.466124-9.15859-20.466124-20.466124 0-11.2973 9.168824-20.466124 20.466124-20.466124l287.395546 0L983.046263 286.362007l-224.953402 0c-11.307533 0-20.466124-9.168824-20.466124-20.466124L737.626737 40.932248l-306.756499 0 0 75.693959c0 11.307533-9.168824 20.466124-20.466124 20.466124-11.307533 0-20.466124-9.15859-20.466124-20.466124L389.93799 20.466124c0-11.2973 9.15859-20.466124 20.466124-20.466124l347.688747 0c11.2973 0 20.466124 9.168824 20.466124 20.466124l0 224.963635 175.548178 0-128.680754-128.680754c-7.992021-7.992021-7.992021-20.947078 0-28.949332 7.992021-7.992021 20.947078-7.992021 28.939099 0l163.616428 163.626661C1021.819334 255.263731 1023.978511 260.462127 1023.978511 265.895883z" p-id="10186"></path></svg>