<?xml version="1.0" standalone="no"?><!DOCTYPE svg PUBLIC "-//W3C//DTD SVG 1.1//EN" "http://www.w3.org/Graphics/SVG/1.1/DTD/svg11.dtd"><svg t="1616408360339" class="icon" viewBox="0 0 1024 1024" version="1.1" xmlns="http://www.w3.org/2000/svg" p-id="7143" xmlns:xlink="http://www.w3.org/1999/xlink" width="200" height="200"><defs><style type="text/css"></style></defs><path d="M902.4 397.866667c-9.6-9.6-22.933333-14.933333-36.266667-14.933334h-21.866666V277.333333v-2.133333c0-4.266667-1.6-8.533333-4.266667-11.733333l-176.533333-147.733334c-1.6-1.6-3.2-2.666667-4.8-3.733333-1.066667-0.533333-2.133333-1.066667-3.733334-1.6-0.533333 0-0.533333 0-1.066666-0.533333-1.6-0.533333-2.666667-0.533333-4.266667-0.533334H216c-19.733333 0-35.733333 16-35.733333 35.733334v237.333333h-21.866667c-13.866667 0-26.666667 5.333333-36.266667 14.933333-10.133333 10.133333-15.466667 22.933333-15.466666 36.8v265.6c0 28.266667 22.933333 51.2 51.2 51.2h21.866666v133.866667c0 19.733333 16 35.733333 35.733334 35.733333h592.533333c19.733333 0 35.733333-16 35.733333-35.733333v-133.866667h21.866667c28.266667 0 51.2-22.933333 51.2-51.2V434.133333c0.533333-13.866667-4.8-26.666667-14.4-36.266666z m-666.666667-236.266667h394.666667v114.133333c0 4.8 2.133333 9.066667 5.333333 12.8 3.2 3.2 8 5.333333 12.8 5.333334h142.4V373.333333H235.733333V161.6z m437.333334 397.333333c0 36.8-8.533333 65.066667-25.066667 85.866667-16.533333 20.8-38.933333 30.933333-66.666667 30.933333-28.266667 0-50.666667-10.133333-67.2-30.933333-16.533333-20.8-25.066667-49.066667-25.066666-84.8 0-22.933333 2.666667-42.666667 8.533333-58.133333 4.266667-11.733333 10.133333-21.866667 17.6-30.933334 7.466667-9.066667 15.466667-16 24.533333-20.266666 11.733333-5.866667 25.6-9.066667 40.533334-9.066667 27.733333 0 50.133333 10.133333 66.666666 30.933333s26.133333 49.066667 26.133334 86.4zM423.466667 592c-2.666667-3.733333-7.466667-6.933333-13.866667-9.6-4.266667-1.6-14.4-5.333333-30.4-10.133333-20.266667-5.866667-34.666667-13.333333-43.2-22.4-11.733333-12.266667-17.6-27.733333-17.6-45.866667 0-11.733333 2.666667-22.4 8-32.533333 5.333333-10.133333 13.333333-17.6 23.466667-22.933334s22.933333-8 37.333333-8c23.466667 0 41.6 6.4 53.333333 18.666667s18.133333 29.333333 18.666667 50.133333l-37.333333 2.666667c-1.6-11.733333-5.333333-20.266667-10.666667-25.066667-5.333333-5.333333-13.333333-7.466667-24-7.466666-11.2 0-19.733333 2.666667-26.133333 8-4.266667 3.733333-5.866667 8-5.866667 13.866666 0 5.333333 2.133333 10.133333 5.866667 13.866667 4.8 4.8 16.533333 10.133333 35.2 14.933333 18.666667 5.333333 32.533333 10.666667 41.066666 16.533334s16 13.333333 20.8 22.933333c4.8 9.6 7.466667 21.866667 7.466667 36.266667 0 12.8-3.2 25.066667-9.066667 36.266666-5.866667 11.2-14.4 19.733333-25.6 25.066667s-24.533333 8.533333-41.066666 8.533333c-24 0-42.133333-6.4-54.933334-19.733333-12.8-13.333333-20.266667-32.533333-22.933333-58.133333l37.333333-4.266667c2.133333 14.933333 6.933333 26.133333 13.333334 33.066667 6.933333 6.933333 16 10.666667 27.733333 10.666666 12.266667 0 21.333333-3.2 27.733333-9.6 6.4-6.4 9.6-13.333333 9.6-21.866666-0.533333-5.333333-1.6-10.133333-4.266666-13.866667z m-248.533334 65.066667c-10.133333-12.266667-14.933333-30.933333-15.466666-54.933334l35.733333-4.8c0.533333 12.8 2.133333 22.4 4.8 27.733334 4.266667 8 10.133333 12.266667 18.666667 12.266666s14.4-2.666667 18.133333-8.533333c3.733333-5.866667 5.333333-18.133333 5.333333-36.266667V444.8h37.866667v143.466667c0 18.666667-1.6 33.066667-4.266667 43.2-3.733333 13.333333-10.666667 24-20.266666 32-9.6 8-22.4 11.733333-38.4 11.733333-17.6 0.533333-32-5.866667-42.133334-18.133333z m616 202.133333H235.733333v-98.133333h555.733334v98.133333zM853.333333 672h-38.4l-76.266666-147.733333V672h-35.2V444.8h37.333333l77.333333 151.466667V444.8h35.2V672z" p-id="7144"></path><path d="M581.333333 480.533333c-15.466667 0-28.266667 6.4-37.866666 19.2-9.6 12.8-14.4 32.533333-14.4 58.666667 0 25.6 4.8 45.333333 14.933333 58.133333 10.133333 13.333333 22.4 19.733333 37.866667 19.733334 15.466667 0 27.733333-6.4 37.333333-19.733334 9.6-13.333333 14.4-33.066667 14.4-59.2 0-26.133333-4.8-45.333333-14.4-58.133333-9.6-12.266667-21.866667-18.666667-37.866667-18.666667z" p-id="7145"></path></svg>