<?xml version="1.0" standalone="no"?><!DOCTYPE svg PUBLIC "-//W3C//DTD SVG 1.1//EN" "http://www.w3.org/Graphics/SVG/1.1/DTD/svg11.dtd"><svg t="1616408010660" class="icon" viewBox="0 0 1024 1024" version="1.1" xmlns="http://www.w3.org/2000/svg" p-id="1600" xmlns:xlink="http://www.w3.org/1999/xlink" width="200" height="200"><defs><style type="text/css"></style></defs><path d="M518.4 819.2h281.6c6.4 0 19.2-6.4 25.6-6.4 6.4-6.4 6.4-12.8 6.4-25.6V268.8c0-19.2-12.8-32-32-32h-576c-6.4 0-19.2 6.4-25.6 6.4 0 6.4-6.4 19.2-6.4 25.6v518.4c0 19.2 12.8 32 32 32h294.4z m12.8 64H224c-51.2 0-96-44.8-96-96V268.8c0-25.6 12.8-51.2 25.6-70.4s44.8-25.6 70.4-25.6h576c51.2 0 96 44.8 96 96v518.4c0 25.6-12.8 51.2-25.6 70.4-19.2 19.2-44.8 25.6-70.4 25.6H531.2z m153.6-358.4" p-id="1601"></path><path d="M441.6 672c-19.2 19.2-38.4 0-38.4 0L288 537.6c-6.4-6.4-6.4-12.8 0-19.2L403.2 384s25.6-19.2 38.4 0c19.2 19.2 0 38.4 0 38.4L352 531.2 441.6 640c0-6.4 12.8 19.2 0 32z m51.2 19.2c-25.6-6.4-19.2-32-19.2-32l25.6-281.6c0-6.4 6.4-32 32-25.6 25.6 6.4 25.6 32 25.6 32l-32 281.6c-6.4 6.4-12.8 32-32 25.6z m128-19.2s-19.2 19.2-38.4 0 0-38.4 0-38.4l89.6-108.8-89.6-102.4s-12.8-19.2 0-38.4c19.2-19.2 38.4 0 38.4 0l115.2 134.4c6.4 6.4 6.4 12.8 0 19.2l-115.2 134.4z" p-id="1602"></path></svg>