<?xml version="1.0" standalone="no"?><!DOCTYPE svg PUBLIC "-//W3C//DTD SVG 1.1//EN" "http://www.w3.org/Graphics/SVG/1.1/DTD/svg11.dtd"><svg t="1642574452340" class="icon" viewBox="0 0 1024 1024" version="1.1" xmlns="http://www.w3.org/2000/svg" p-id="9263" xmlns:xlink="http://www.w3.org/1999/xlink" width="200" height="200"><defs><style type="text/css"></style></defs><path d="M341.333333 512a170.666667 156.444444 90 1 0 312.888889 0 170.666667 156.444444 90 1 0-312.888889 0Z" p-id="9264"></path><path d="M512 256a256 256 0 0 0-7.537778 511.886222L512 768h142.222222v56.888889h-142.222222c-172.8 0-312.888889-140.088889-312.888889-312.888889S339.2 199.111111 512 199.111111c170.069333 0 308.423111 135.68 312.775111 304.696889L824.888889 512v56.888889a113.777778 113.777778 0 0 1-211.598222 58.140444C584.732444 661.219556 543.544889 682.666667 497.777778 682.666667c-86.414222 0-156.444444-76.401778-156.444445-170.666667s70.030222-170.666667 156.444445-170.666667c37.831111 0 72.533333 14.648889 99.584 39.054223L597.333333 341.333333h56.888889v227.555556a56.888889 56.888889 0 0 0 113.635556 4.266667L768 568.888889v-56.888889a256 256 0 0 0-256-256z m-14.222222 142.222222c-53.816889 0-99.555556 49.891556-99.555556 113.777778s45.738667 113.777778 99.555556 113.777778 99.555556-49.891556 99.555555-113.777778-45.738667-113.777778-99.555555-113.777778z" p-id="9265"></path></svg>