<?xml version="1.0" standalone="no"?><!DOCTYPE svg PUBLIC "-//W3C//DTD SVG 1.1//EN" "http://www.w3.org/Graphics/SVG/1.1/DTD/svg11.dtd"><svg t="1644402736093" class="icon" viewBox="0 0 1024 1024" version="1.1" xmlns="http://www.w3.org/2000/svg" p-id="5642" xmlns:xlink="http://www.w3.org/1999/xlink" width="200" height="200"><defs><style type="text/css"></style></defs><path d="M501.0944 1021.824c6.9376 2.8928 14.8224 2.8928 21.8112 0 3.4304-1.4336 6.528-3.4816 9.1136-6.0672 0.0256 0 0.0768-0.0256 0.0768-0.0256l158.9248-158.9248c11.1104-11.1104 11.1104-29.1328 0-40.2176-11.0848-11.0848-29.0816-11.0848-40.1664 0.0256l-110.4384 110.4128 0.0256-335.36c0-15.6928-12.7232-28.416-28.416-28.416s-28.416 12.6976-28.416 28.3904l0 335.3856-110.4128-110.4128c-11.1104-11.0848-29.1072-11.0848-40.1408 0-11.1104 11.1104-11.136 29.1072-0.0512 40.192l158.9504 158.9248c0.8192 0.8192 1.8944 1.1776 2.816 1.8688C496.7168 1019.1872 498.688 1020.8256 501.0944 1021.824z" p-id="5643"></path><path d="M522.9056 2.176c-6.9376-2.8928-14.8224-2.8928-21.7856 0C497.6896 3.584 494.592 5.632 491.9808 8.2176c-0.0256 0-0.0768 0.0512-0.0768 0.0512L332.9792 167.168c-11.1104 11.1104-11.1104 29.1328 0 40.2176 11.0848 11.0848 29.0816 11.0848 40.1664-0.0256l110.4384-110.4128-0.0256 335.36c0 15.6928 12.7232 28.416 28.416 28.416 15.6928 0 28.4416-12.6976 28.4416-28.3904L540.416 96.9472l110.4128 110.4128c11.1104 11.0848 29.1072 11.0848 40.1408 0 11.1104-11.1104 11.1616-29.1072 0.0512-40.192l-158.9504-158.8992c-0.8192-0.8448-1.8944-1.2032-2.816-1.8944C527.2832 4.8128 525.312 3.1744 522.9056 2.176z" p-id="5644"></path><path d="M1021.824 522.9056c2.8928-6.9376 2.8928-14.8224 0-21.8112-1.408-3.4304-3.456-6.528-6.0416-9.1136 0-0.0256-0.0512-0.0768-0.0512-0.0768l-158.8992-158.9248c-11.1104-11.1104-29.1584-11.1104-40.2432 0-11.0592 11.0848-11.0592 29.0816 0.0512 40.1664l110.3872 110.4384-335.36-0.0256c-15.6928 0-28.3904 12.7232-28.3904 28.416s12.6976 28.416 28.3904 28.416l335.36 0-110.3872 110.4128c-11.1104 11.1104-11.1104 29.1072 0 40.1408 11.1104 11.1104 29.1072 11.136 40.192 0.0512l158.8992-158.9504c0.8448-0.8192 1.2032-1.8944 1.8944-2.816C1019.1872 527.2832 1020.8256 525.312 1021.824 522.9056z" p-id="5645"></path><path d="M2.176 501.0944c-2.8928 6.9376-2.8928 14.8224 0 21.7856 1.408 3.456 3.456 6.5536 6.0416 9.1392l0.0512 0.0512 158.8992 158.9504c11.1104 11.1104 29.1584 11.1104 40.2432 0 11.0592-11.1104 11.0592-29.1072-0.0512-40.192l-110.3872-110.4384 335.36 0.0512c15.6928 0 28.3904-12.7488 28.3904-28.416 0-15.6928-12.6976-28.4416-28.3904-28.4416l-335.36 0.0256 110.3872-110.4128c11.1104-11.1104 11.1104-29.1072 0-40.1408-11.1104-11.1104-29.1072-11.1616-40.192-0.0512l-158.8992 158.9504c-0.8448 0.8192-1.2032 1.8944-1.8944 2.816C4.8128 496.7168 3.1744 498.688 2.176 501.0944z" p-id="5646"></path></svg>