<?xml version="1.0" standalone="no"?><!DOCTYPE svg PUBLIC "-//W3C//DTD SVG 1.1//EN" "http://www.w3.org/Graphics/SVG/1.1/DTD/svg11.dtd"><svg t="1642993749723" class="icon" viewBox="0 0 1024 1024" version="1.1" xmlns="http://www.w3.org/2000/svg" p-id="7335" xmlns:xlink="http://www.w3.org/1999/xlink" width="200" height="200"><defs><style type="text/css"></style></defs><path d="M840 48 184 48C117.728 48 64 101.728 64 168l0 656c0 66.272 53.728 120 120 120l656 0c66.272 0 120-53.728 120-120L960 168C960 101.728 906.272 48 840 48zM888 776c0 66.272-29.728 96-96 96L232 872c-66.272 0-96-29.728-96-96L136 216c0-66.272 29.728-96 96-96l560 0c66.272 0 96 29.728 96 96L888 776zM752 384c-61.856 0-112 50.144-112 112s50.144 112 112 112 112-50.144 112-112S813.856 384 752 384zM752 568c-39.768 0-72-32.232-72-72s32.232-72 72-72 72 32.232 72 72S791.768 568 752 568zM272 384c-61.856 0-112 50.144-112 112s50.144 112 112 112 112-50.144 112-112S333.856 384 272 384zM272 568c-39.768 0-72-32.232-72-72s32.232-72 72-72 72 32.232 72 72S311.768 568 272 568zM272 472c-13.256 0-24 10.744-24 24s10.744 24 24 24 24-10.744 24-24S285.256 472 272 472zM512 472c-13.256 0-24 10.744-24 24s10.744 24 24 24 24-10.744 24-24S525.256 472 512 472zM512 384c-61.856 0-112 50.144-112 112s50.144 112 112 112 112-50.144 112-112S573.856 384 512 384zM512 568c-39.768 0-72-32.232-72-72s32.232-72 72-72 72 32.232 72 72S551.768 568 512 568zM752 472c-13.256 0-24 10.744-24 24s10.744 24 24 24 24-10.744 24-24S765.256 472 752 472z" p-id="7336"></path></svg>