<?xml version="1.0" standalone="no"?><!DOCTYPE svg PUBLIC "-//W3C//DTD SVG 1.1//EN" "http://www.w3.org/Graphics/SVG/1.1/DTD/svg11.dtd"><svg t="1642472250614" class="icon" viewBox="0 0 1027 1024" version="1.1" xmlns="http://www.w3.org/2000/svg" p-id="9489" xmlns:xlink="http://www.w3.org/1999/xlink" width="200.5859375" height="200"><defs><style type="text/css"></style></defs><path d="M0 62.506667h329.173333v85.333333H0zM984.32 661.546667c-10.88 0-21.76-4.266667-30.08-12.586667l-153.813333-153.813333c-16.64-16.64-16.64-43.733333 0-60.373334s43.733333-16.64 60.373333 0l153.813333 153.813334c16.64 16.64 16.64 43.733333 0 60.373333-8.32 8.533333-19.413333 12.586667-30.293333 12.586667zM0 353.493333h288.213333v85.333334H0zM0 644.906667h589.44v85.333333H0zM0 936.106667H1023.36v85.333333H0z" p-id="9490"></path><path d="M657.92 555.946667c-152.533333 0-276.693333-124.16-276.693333-276.693334S505.386667 2.56 657.92 2.56s276.693333 124.16 276.693333 276.693333-123.946667 276.693333-276.693333 276.693334z m0-468.053334c-105.6 0-191.36 85.76-191.36 191.36s85.76 191.36 191.36 191.36 191.36-85.76 191.36-191.36-85.76-191.36-191.36-191.36z" p-id="9491"></path></svg>