<?xml version="1.0" standalone="no"?><!DOCTYPE svg PUBLIC "-//W3C//DTD SVG 1.1//EN" "http://www.w3.org/Graphics/SVG/1.1/DTD/svg11.dtd"><svg t="1643008585118" class="icon" viewBox="0 0 1024 1024" version="1.1" xmlns="http://www.w3.org/2000/svg" p-id="6377" xmlns:xlink="http://www.w3.org/1999/xlink" width="200" height="200"><defs><style type="text/css"></style></defs><path d="M794.17 147.91c45.16 0.2 81.71 36.76 81.92 81.92v564.34c-0.2 45.16-36.76 81.71-81.92 81.92H229.83c-45.16-0.2-81.71-36.76-81.92-81.92V229.83c0.2-45.16 36.76-81.71 81.92-81.92h564.34m0-45.51H229.83c-70.09 0-127.43 57.34-127.43 127.43v564.34c0 70.08 57.34 127.43 127.43 127.43h564.34c70.08 0 127.43-57.34 127.43-127.43V229.83c0-70.09-57.34-127.43-127.43-127.43z m0 0" p-id="6378"></path><path d="M514.8 704.46c-6.02 0.01-11.81-2.38-16.07-6.64l-256-255.09a22.73 22.73 0 0 1-6-22 22.752 22.752 0 0 1 16.1-16.16c7.87-2.11 16.27 0.14 22.02 5.92l239.88 239.05 239.22-239.39c8.89-8.82 23.25-8.8 32.11 0.06 8.86 8.86 8.9 23.21 0.08 32.11L530.89 697.79a22.744 22.744 0 0 1-16.09 6.67z m0 0" p-id="6379"></path></svg>