<?xml version="1.0" standalone="no"?><!DOCTYPE svg PUBLIC "-//W3C//DTD SVG 1.1//EN" "http://www.w3.org/Graphics/SVG/1.1/DTD/svg11.dtd"><svg t="1630571355567" class="icon" viewBox="0 0 1024 1024" version="1.1" xmlns="http://www.w3.org/2000/svg" p-id="28552" xmlns:xlink="http://www.w3.org/1999/xlink" width="200" height="200"><defs><style type="text/css"></style></defs><path d="M812.544 126.17728a7.94624 7.94624 0 0 1 12.88192 0l114.8928 151.6544c4.21888 5.59104 0.34816 13.90592-6.49216 13.90592H859.9552V752.8448h73.87136c6.84032 0 10.71104 8.31488 6.38976 13.90592l-114.8928 151.53152a7.94624 7.94624 0 0 1-12.9024 0l-114.8928-151.53152c-4.21888-5.59104-0.34816-13.90592 6.49216-13.90592h73.87136V291.7376h-73.74848c-6.9632 0-10.71104-8.31488-6.51264-13.9264zM595.00544 750.44864v73.03168H102.4v-73.03168h492.60544z m0-262.43072v73.0112H102.4V488.0384h492.60544z m0-262.4512v73.03168H102.4v-73.03168h492.60544z" p-id="28553"></path></svg>