<?xml version="1.0" standalone="no"?><!DOCTYPE svg PUBLIC "-//W3C//DTD SVG 1.1//EN" "http://www.w3.org/Graphics/SVG/1.1/DTD/svg11.dtd"><svg t="1643249572463" class="icon" viewBox="0 0 1024 1024" version="1.1" xmlns="http://www.w3.org/2000/svg" p-id="5591" xmlns:xlink="http://www.w3.org/1999/xlink" width="200" height="200"><defs><style type="text/css"></style></defs><path d="M723.157826 247.461719H301.140946c-156.170518 0-286.046616 119.314408-286.046616 264.552964 0 144.974258 129.876098 264.552964 286.046616 264.552964h422.01688c156.429708 0 285.736353-119.577429 285.736353-264.552964 0-145.238556-129.023196-264.552964-285.736353-264.552964z m0 485.097185H301.140946c-130.417461 0-238.724577-99.915986-238.724577-220.544221 0-121.131295 107.738939-220.544221 238.724577-220.544221h422.01688c130.702188 0 238.466663 99.412926 238.466663 220.544221 0 120.628235-108.332651 220.544221-238.466663 220.544221z m0-405.371238c-109.984831 0-199.797498 83.358443-199.797498 184.827017s89.817774 184.299699 199.797498 184.299699c109.443467 0 199.819203-82.832401 199.819203-184.299699 0-101.731595-90.380843-184.827017-199.819203-184.827017z m0 296.400187c-66.615764 0-120.886149-49.957354-120.886149-111.57317 0-61.855854 54.270385-111.837467 120.886149-111.837467s120.370322 49.981614 120.370322 111.837467c0 61.615815-53.753281 111.57317-120.370322 111.57317z" p-id="5592"></path></svg>