<?xml version="1.0" standalone="no"?><!DOCTYPE svg PUBLIC "-//W3C//DTD SVG 1.1//EN" "http://www.w3.org/Graphics/SVG/1.1/DTD/svg11.dtd"><svg t="1643337991190" class="icon" viewBox="0 0 1024 1024" version="1.1" xmlns="http://www.w3.org/2000/svg" p-id="6071" xmlns:xlink="http://www.w3.org/1999/xlink" width="200" height="200"><defs><style type="text/css"></style></defs><path d="M256 51.2a51.2 51.2 0 0 1 51.2 51.2v204.8a51.2 51.2 0 0 1-51.2 51.2H51.2a51.2 51.2 0 0 1-51.2-51.2V102.4a51.2 51.2 0 0 1 51.2-51.2h204.8z m-10.24 61.44H61.44v184.32h184.32V112.64zM921.6 102.4a51.2 51.2 0 0 1 51.2 51.2v102.4a51.2 51.2 0 0 1-51.2 51.2H460.8a51.2 51.2 0 0 1-51.2-51.2V153.6a51.2 51.2 0 0 1 51.2-51.2h460.8z m-10.24 61.44H471.04v81.92h440.32V163.84zM921.6 460.8a51.2 51.2 0 0 1 51.2 51.2v102.4a51.2 51.2 0 0 1-51.2 51.2h-409.6a51.2 51.2 0 0 1-51.2-51.2v-102.4a51.2 51.2 0 0 1 51.2-51.2h409.6z m-10.24 61.44h-389.12v81.92h389.12v-81.92zM921.6 768a51.2 51.2 0 0 1 51.2 51.2v102.4a51.2 51.2 0 0 1-51.2 51.2h-409.6a51.2 51.2 0 0 1-51.2-51.2v-102.4a51.2 51.2 0 0 1 51.2-51.2h409.6z m-10.24 61.44h-389.12v81.92h389.12v-81.92z" p-id="6072"></path><path d="M184.32 358.4v460.8a20.48 20.48 0 0 0 16.384 20.0704L204.8 839.68h307.2v61.44H204.8a81.92 81.92 0 0 1-81.5616-74.4448L122.88 819.2V358.4h61.44z" p-id="6073"></path><path d="M471.7056 532.48v61.44H153.6v-61.44z" p-id="6074"></path></svg>