<?xml version="1.0" standalone="no"?><!DOCTYPE svg PUBLIC "-//W3C//DTD SVG 1.1//EN" "http://www.w3.org/Graphics/SVG/1.1/DTD/svg11.dtd"><svg t="1644802797845" class="icon" viewBox="0 0 1024 1024" version="1.1" xmlns="http://www.w3.org/2000/svg" p-id="6031" xmlns:xlink="http://www.w3.org/1999/xlink" width="200" height="200"><defs><style type="text/css"></style></defs><path d="M312.789333 1006.229333H39.082667v-320h273.706666v320z m-53.333333-53.333333v-213.333333H92.48v213.333333h167.018667zM654.122667 1006.229333h-273.706667v-320h273.706667v320z m-53.333334-53.333333v-213.333333h-166.997333v213.333333h167.018667zM1016.789333 1006.229333h-273.706666v-320h273.706666v320z m-53.333333-53.333333v-213.333333h-166.997333v213.333333h167.018666zM693.226667 21.333333v273.706667H341.333333V21.333333h351.893334z m-53.354667 53.312H394.666667v167.04h245.205333v-167.04z" p-id="6032"></path><path d="M901.333333 400v296.362667h-53.333333V453.333333H197.333333V704h-53.333333V400z" p-id="6033"></path><path d="M549.333333 261.333333v458.666667h-53.333333v-458.666667z" p-id="6034"></path></svg>