<?xml version="1.0" standalone="no"?><!DOCTYPE svg PUBLIC "-//W3C//DTD SVG 1.1//EN" "http://www.w3.org/Graphics/SVG/1.1/DTD/svg11.dtd"><svg t="1630571313276" class="icon" viewBox="0 0 1024 1024" version="1.1" xmlns="http://www.w3.org/2000/svg" p-id="27647" xmlns:xlink="http://www.w3.org/1999/xlink" width="200" height="200"><defs><style type="text/css"></style></defs><path d="M64.258 77.061V946.94h895.483V77.06H64.258z m864.734 839.133H95.003V107.806h833.989v808.388z m0 0" p-id="27648"></path><path d="M189.173 344.917c16.23-56.82 21.54-67.518 92.664-67.518h29.654v269.713c0 21.174-1.12 32.383-7.49 38.809-6.496 6.552-19.86 9.648-47.655 11.037l-4.871 0.243v17.855h161.688v-17.864l-4.875-0.234c-55.626-2.675-57.381-10.22-57.381-49.851v-269.71H395.7c44.886 0 64.463 6.08 77.435 67.177l1.091 5.12 18.934-4.455-0.366-4.402-0.865-10.24c-2.537-30.037-5.164-61.093-4.17-84.468l0.214-5.038-17.346-1.022-1.651 2.239c-7.008 9.517-9.493 11.38-22.237 11.38H220.705c-7.277 0-12.533 0-16.153-1.36-2.463-0.918-5.794-2.84-9.71-9.56l-1.483-2.543H176.5l-0.177 4.944c-0.96 26.818-2.524 62.17-6.148 97.819l-0.576 5.644h18.51l1.065-3.715z m0 0M169.113 775.166h689.93v28.447h-689.93v-28.447z m0 0M578.818 343.244h280.22v28.442h-280.22v-28.442z m0 0M578.818 465.983h280.22v28.447h-280.22v-28.447z m0 0M578.818 586.751h280.22v28.442h-280.22v-28.442z m0 0" p-id="27649"></path></svg>